<svg width="1356" height="1356" viewBox="0 0 1356 1356" fill="none" xmlns="http://www.w3.org/2000/svg">
<path d="M310 30H1046C1200.64 30 1326 155.36 1326 310V1046C1326 1200.64 1200.64 1326 1046 1326H310C155.36 1326 30 1200.64 30 1046V310C30 155.36 155.36 30 310 30Z" fill="#E50914"/>
<path d="M172 728C128 723 93 688 93 640C93 589.19 134.19 548 185 548C235.81 548 277 589.19 277 640V799C277 816.333 285.667 825 303 825H1053C1070.33 825 1079 816.333 1079 799V640C1079 589.19 1120.19 548 1171 548C1221.81 548 1263 589.19 1263 640C1263 688 1228 723 1184 728V858C1184 898 1164 918 1124 918H1117V966C1117 974 1113 978 1105 978H1067C1057 978 1050 973.333 1046 964L1025 918H331L310 964C306 973.333 299 978 289 978H251C243 978 239 974 239 966V918H232C192 918 172 898 172 858V728ZM239 532V452C239 411.13 272.13 378 313 378H590C630.87 378 664 411.13 664 452V688C542 650 417 661 305 688V633C305 590 279 551 239 532ZM1117 532V452C1117 411.13 1083.87 378 1043 378H766C725.13 378 692 411.13 692 452V688C814 650 939 661 1051 688V633C1051 590 1077 551 1117 532ZM305 729C305 707 393 692 482 692C573 692 664 704 664 734V782C664 791.333 659.333 796 650 796H319C309.667 796 305 791.333 305 782V729ZM1051 729C1051 707 963 692 874 692C783 692 692 704 692 734V782C692 791.333 696.667 796 706 796H1037C1046.33 796 1051 791.333 1051 782V729Z" fill="#121212"/>
</svg>
